<?xml version="1.0" encoding="UTF-8" standalone="no"?>
<svg
   xmlns:dc="http://purl.org/dc/elements/1.1/"
   xmlns:cc="http://creativecommons.org/ns#"
   xmlns:rdf="http://www.w3.org/1999/02/22-rdf-syntax-ns#"
   xmlns:svg="http://www.w3.org/2000/svg"
   xmlns="http://www.w3.org/2000/svg"
   xmlns:sodipodi="http://sodipodi.sourceforge.net/DTD/sodipodi-0.dtd"
   xmlns:inkscape="http://www.inkscape.org/namespaces/inkscape"
   inkscape:export-ydpi="3"
   inkscape:export-xdpi="3"
   inkscape:export-filename="C:\Users\ashley\projects\assets\EternalCalendar\appIcons\favicon.png"
   sodipodi:docname="appIcon.svg"
   inkscape:version="1.0 (4035a4fb49, 2020-05-01)"
   id="svg1569"
   version="1.1"
   viewBox="0 0 1024 1024"
   height="1024"
   width="1024">
  <defs
     id="defs1563">
    <rect
       id="rect2156"
       height="796.00021"
       width="933.38095"
       y="246.47722"
       x="-583.86817" />
  </defs>
  <sodipodi:namedview
     inkscape:window-maximized="1"
     inkscape:window-y="302"
     inkscape:window-x="1072"
     inkscape:window-height="1017"
     inkscape:window-width="1920"
     units="px"
     showgrid="false"
     inkscape:document-rotation="0"
     inkscape:current-layer="layer4"
     inkscape:document-units="px"
     inkscape:cy="506.56854"
     inkscape:cx="609.00315"
     inkscape:zoom="0.5"
     inkscape:pageshadow="2"
     inkscape:pageopacity="0.0"
     borderopacity="1.0"
     bordercolor="#666666"
     pagecolor="#ffffff"
     id="base" />
  <metadata
     id="metadata1566">
    <rdf:RDF>
      <cc:Work
         rdf:about="">
        <dc:format>image/svg+xml</dc:format>
        <dc:type
           rdf:resource="http://purl.org/dc/dcmitype/StillImage" />
        <dc:title></dc:title>
      </cc:Work>
    </rdf:RDF>
  </metadata>
  <g
     style="display:none"
     inkscape:label="iOS background"
     id="layer5"
     inkscape:groupmode="layer">
    <rect
       y="0"
       x="0"
       height="1024"
       width="1024"
       id="rect2198"
       style="fill:#989898;fill-opacity:1;stroke:none;stroke-width:16;stroke-miterlimit:4;stroke-dasharray:none" />
  </g>
  <g
     style="display:inline"
     inkscape:label="Desktop background"
     id="layer4"
     inkscape:groupmode="layer">
    <rect
       ry="128"
       rx="128"
       style="display:inline;fill:#989898;fill-opacity:1;stroke:none;stroke-width:16;stroke-miterlimit:4;stroke-dasharray:none"
       id="rect2200"
       width="1024"
       height="1024"
       x="0"
       y="0" />
  </g>
  <g
     id="layer1"
     inkscape:groupmode="layer"
     inkscape:label="Layer 1">
    <path
       d="M 104 162.0332 C 68.544001 162.0332 40 190.5772 40 226.0332 L 40 330.92578 L 984 330.92578 L 984 226.0332 C 984 190.5772 955.456 162.0332 920 162.0332 L 104 162.0332 z "
       style="fill:#000000;fill-opacity:1;stroke:none;stroke-width:16;stroke-miterlimit:4;stroke-dasharray:none"
       id="rect2179" />
    <path
       d="m 104.00003,162.03372 h 815.99994 c 35.456,0 64,28.544 64,64 v 571.93256 c 0,35.456 -28.544,64 -64,64 H 104.00003 c -35.455999,0 -63.999999,-28.544 -63.999999,-64 V 226.03372 c 0,-35.456 28.544,-64 63.999999,-64 z"
       style="fill:none;stroke:#000000;stroke-width:16.0001;stroke-miterlimit:4;stroke-dasharray:none"
       id="rect2132" />
    <g
       transform="matrix(6.2236697,0,0,6.2236697,3712.0068,-1717.9279)"
       style="font-style:normal;font-weight:normal;font-size:200px;line-height:1.25;font-family:sans-serif;word-spacing:0px;white-space:pre;shape-inside:url(#rect2156);fill:#000000;fill-opacity:1;stroke:none;stroke-width:0.160677"
       id="text2154"
       aria-label="∞">
      <path
         id="path2160"
         style="font-style:normal;font-variant:normal;font-weight:normal;font-stretch:normal;font-size:200px;font-family:Podkova;-inkscape-font-specification:Podkova;stroke-width:0.160677"
         d="m -452.46719,371.13071 q 0,9 -4,16.4 -4,7.2 -11.2,11.6 -7,4.4 -16.2,4.4 -9.2,0 -16.8,-5.2 -7.4,-5.4 -13.6,-16.2 -6.8,10.6 -14,16 -7.2,5.4 -16,5.4 -9,0 -16.2,-4.2 -7.2,-4.4 -11.4,-11.8 -4,-7.4 -4,-16.6 0,-9.2 4,-16.6 4,-7.4 11.2,-11.8 7.2,-4.4 16.4,-4.4 9,0 16.4,5.2 7.6,5.2 13.8,16.4 6.2,-10.6 13.4,-16 7.4,-5.4 17,-5.4 9,0 16,4.2 7.2,4.2 11.2,11.6 4,7.2 4,17 z m -69,-0.4 q -5.4,-10.6 -10.8,-14.6 -5.2,-4 -11.6,-4 -7.6,0 -12.4,5.2 -4.6,5.2 -4.6,13.4 0,8.2 4.6,13.6 4.8,5.2 12.4,5.2 7.6,0 12.8,-5 5.2,-5.2 9.6,-13.8 z m 54,0.2 q 0,-8.2 -4.8,-13.4 -4.6,-5.2 -12,-5.2 -7,0 -12.4,4.4 -5.2,4.4 -10.2,14.2 5,9.4 10.2,14.2 5.4,4.6 12.2,4.6 8,0 12.4,-5.4 4.6,-5.4 4.6,-13.4 z" />
    </g>
  </g>
</svg>
