<?xml version="1.0" encoding="UTF-8" standalone="no"?>
<svg
   xmlns:dc="http://purl.org/dc/elements/1.1/"
   xmlns:cc="http://creativecommons.org/ns#"
   xmlns:rdf="http://www.w3.org/1999/02/22-rdf-syntax-ns#"
   xmlns:svg="http://www.w3.org/2000/svg"
   xmlns="http://www.w3.org/2000/svg"
   xmlns:sodipodi="http://sodipodi.sourceforge.net/DTD/sodipodi-0.dtd"
   xmlns:inkscape="http://www.inkscape.org/namespaces/inkscape"
   inkscape:export-ydpi="96"
   inkscape:export-xdpi="96"
   inkscape:export-filename="C:\Users\ashley\projects\assets\EternalCalendar\export\textures.unpacked\logo.png"
   inkscape:version="1.0 (4035a4fb49, 2020-05-01)"
   sodipodi:docname="logo.svg"
   id="svg8"
   version="1.1"
   viewBox="0 0 256 106.00001"
   height="106"
   width="256">
  <defs
     id="defs2">
    <rect
       id="rect2534"
       height="114.24443"
       width="271.52899"
       y="85"
       x="33.086033" />
    <rect
       id="rect2528"
       height="96.473396"
       width="241.12341"
       y="28.124586"
       x="-10.754588" />
    <rect
       id="rect885"
       height="67.381508"
       width="229.80969"
       y="85"
       x="28.637825" />
    <rect
       id="rect879"
       height="58.189121"
       width="231.22392"
       y="85"
       x="25.102291" />
    <rect
       id="rect835"
       height="101.82338"
       width="199.40411"
       y="3.5355339"
       x="3.5355339" />
    <rect
       x="28.637825"
       y="85"
       width="229.80969"
       height="67.381508"
       id="rect885-7" />
    <rect
       x="28.637825"
       y="85"
       width="229.80969"
       height="67.381508"
       id="rect923" />
    <rect
       x="25.102291"
       y="85"
       width="231.22392"
       height="58.189121"
       id="rect879-1" />
    <rect
       x="25.102291"
       y="85"
       width="231.22392"
       height="58.189121"
       id="rect926" />
    <rect
       x="3.5355339"
       y="3.5355339"
       width="199.40411"
       height="101.82338"
       id="rect835-2" />
    <rect
       x="3.5355339"
       y="3.5355339"
       width="199.40411"
       height="101.82338"
       id="rect929" />
    <clipPath
       id="clipPath1227"
       clipPathUnits="userSpaceOnUse">
      <path
         d="M 216.70661,80.052048 A 88.728233,52.58252 0 0 1 127.97838,132.63457 88.728233,52.58252 0 0 1 39.250145,80.052048 88.728233,52.58252 0 0 1 127.97838,27.469528 88.728233,52.58252 0 0 1 216.70661,80.052048"
         style="display:inline;fill:#000000;stroke:#ffffff;stroke-width:0"
         id="path1229" />
    </clipPath>
    <clipPath
       id="clipPath2519"
       clipPathUnits="userSpaceOnUse">
      <path
         id="path2521"
         style="font-style:normal;font-variant:normal;font-weight:normal;font-stretch:normal;font-size:53.3333px;line-height:1.25;font-family:Podkova;-inkscape-font-specification:Podkova;white-space:pre;fill:#ff0000;fill-opacity:1;stroke:none"
         d="m 245.30676,219.11316 q 1.81333,-1.22666 4.10666,-1.86666 2.29333,-0.64 4.58666,-0.64 1.92,0 2.02667,0.10666 l 0.90667,5.6 -3.46667,0.74667 -0.53333,-2.98667 q -1.65333,0 -3.41333,0.48 -1.70667,0.48 -3.14667,1.33333 v 15.09333 h 5.22667 v 3.30666 h -13.86666 v -3.30666 h 4.47999 v -15.25333 l -5.11999,-1.76 1.12,-3.30666 z m -17.71167,19.62666 q -3.46667,2.34666 -7.52,2.34666 -4.47999,0 -6.82666,-1.81333 -2.29333,-1.81333 -2.34666,-5.28 -0.10667,-6.98666 8.85332,-6.98666 l 6.88,0.0533 q 0,-3.57333 -1.33333,-5.27999 -1.33334,-1.76 -4.05333,-1.76 -1.28,0 -2.50667,0.16 -1.22666,0.16 -2.29333,0.48 l -0.53333,2.93333 -3.41334,-0.64 0.85334,-4.85333 q 2.02666,-0.74667 3.94666,-1.12 1.97333,-0.37333 3.78667,-0.37333 4.79999,0 7.25333,2.61333 2.45333,2.56 2.45333,7.62666 v 9.27999 l 5.06666,1.65334 -1.06667,3.41333 z m -7.68,-8.37333 q -2.29333,0 -3.51999,0.90666 -1.22667,0.90667 -1.22667,2.66667 0,3.73333 5.12,3.73333 3.67999,0 6.34666,-2.02667 v -5.22666 z m -13.09331,10.82666 -7.09333,-2.45333 q -3.25333,2.34666 -6.93333,2.34666 -5.49333,0 -8.58666,-3.36 -3.04,-3.41333 -3.04,-9.38666 0,-5.54666 3.04,-8.63999 3.09333,-3.09333 8.58666,-3.09333 1.44,0 2.98667,0.32 1.6,0.26666 2.93333,0.8 v -6.98667 l -5.06666,-1.76 1.11999,-3.30666 8.10667,2.77333 v 27.62665 l 5.01333,1.70667 z m -13.97332,-3.52 q 1.33333,0 2.93333,-0.53333 1.6,-0.58667 2.93333,-1.44 v -14.34666 q -1.17333,-0.58667 -2.82667,-0.96 -1.6,-0.37333 -3.03999,-0.37333 -3.30667,0 -5.38667,2.29333 -2.02666,2.24 -2.02666,5.97333 0,4.21333 2.02666,6.82666 2.08,2.56 5.38667,2.56 z m -44.23082,2.61333 v -3.30666 h 4.48 v -15.30666 l -5.12,-1.76 1.12,-3.30666 7.09333,2.45333 q 1.86666,-1.22667 3.94666,-1.81333 2.13333,-0.64 4.16,-0.64 2.56,0 4.69333,1.01333 2.18667,0.96 3.46667,2.98666 1.33333,1.97334 1.33333,5.01333 v 11.36 h 4.48 v 3.30666 h -11.04 v -3.30666 h 2.4 v -10.50666 q 0,-3.41333 -1.76,-4.90667 -1.70666,-1.54666 -4.26666,-1.54666 -1.49334,0 -3.14667,0.48 -1.6,0.42666 -3.2,1.33333 v 15.14666 h 2.4 v 3.30666 z m -3.5575,-2.72 q -2.13333,1.81334 -4.37333,2.66667 -2.18666,0.85333 -5.01333,0.85333 -3.73333,0 -6.50666,-1.44 -2.77333,-1.49333 -4.32,-4.21333 -1.49333,-2.77333 -1.49333,-6.61333 0,-3.68 1.44,-6.39999 1.44,-2.77334 4.05333,-4.26667 2.66667,-1.54666 6.13333,-1.54666 3.25333,0 5.54666,1.38666 2.29334,1.38667 3.52,3.89333 1.28,2.45333 1.28,5.86667 0,0.48 -0.0533,1.01333 0,0.48 -0.0533,1.01333 l -17.75999,0.10667 q 0.16,2.72 1.28,4.42666 1.17334,1.70667 2.93334,2.50667 1.81333,0.8 3.83999,0.8 2.34667,0 4.21333,-0.64 1.86667,-0.64 3.41334,-1.92 z m -3.83999,-11.03999 q -0.0533,-2.98666 -1.76,-4.8 -1.65333,-1.86666 -4.42667,-1.86666 -2.82666,0 -4.95999,1.86666 -2.13334,1.81334 -2.56,4.85333 z m -34.34499,13.75999 v -3.30666 h 4.48 v -26.87999 l -5.33333,-1.17333 0.90667,-3.41333 8.58666,1.97333 v 29.49332 h 4.48 v 3.30666 z m -10.634158,-1.54666 q -3.466665,2.34666 -7.519995,2.34666 -4.479998,0 -6.826663,-1.81333 -2.293332,-1.81333 -2.346665,-5.28 -0.106667,-6.98666 8.853328,-6.98666 l 6.879996,0.0533 q 0,-3.57333 -1.333333,-5.27999 -1.333332,-1.76 -4.053331,-1.76 -1.279999,0 -2.506665,0.16 -1.226666,0.16 -2.293332,0.48 l -0.533333,2.93333 -3.413331,-0.64 0.853333,-4.85333 q 2.026665,-0.74667 3.946664,-1.12 1.973332,-0.37333 3.786664,-0.37333 4.799997,0 7.253329,2.61333 2.453332,2.56 2.453332,7.62666 v 9.27999 l 5.06666,1.65334 -1.06666,3.41333 z m -7.679995,-8.37333 q -2.293332,0 -3.519998,0.90666 -1.226666,0.90667 -1.226666,2.66667 0,3.73333 5.119997,3.73333 3.679998,0 6.346663,-2.02667 v -5.22666 z M 70.736018,212.97983 q -0.533333,-0.32 -1.439999,-0.58666 -0.853333,-0.32 -2.079999,-0.48 -1.173332,-0.21334 -2.719998,-0.21334 -5.17333,0 -7.893329,3.46667 -2.719998,3.41333 -2.719998,9.38666 0,6.07999 2.773331,9.49333 2.826665,3.41333 7.839996,3.41333 1.333332,0 2.506665,-0.16 1.173333,-0.21334 2.133332,-0.48 0.959999,-0.26667 1.599999,-0.48 l 1.013333,-4.26667 3.626664,0.85334 -1.333332,6.18666 q 0,0 -1.173333,0.53333 -1.173333,0.48 -3.359998,0.96 -2.133332,0.48 -5.01333,0.48 -4.586664,0 -7.999995,-2.02666 -3.359998,-2.02667 -5.226664,-5.70667 -1.866666,-3.73333 -1.919999,-8.79999 0,-5.01333 1.813332,-8.69333 1.866666,-3.73333 5.279997,-5.76 3.413332,-2.08 7.999995,-2.02666 3.519998,0 5.65333,0.64 2.186666,0.58666 3.146665,1.22666 1.013333,0.58667 1.013333,0.64 l 1.173333,6.18667 -3.626665,0.8 z m 87.594202,-18.73361 v -3.30667 h 4.47999 v -26.87998 l -5.33333,-1.17334 0.90667,-3.41333 8.58666,1.97334 v 29.49331 h 4.48 v 3.30667 z m -10.63416,-1.54667 q -3.46666,2.34667 -7.52,2.34667 -4.47999,0 -6.82666,-1.81334 -2.29333,-1.81333 -2.34666,-5.27999 -0.10667,-6.98667 8.85332,-6.98667 l 6.88,0.0533 q 0,-3.57333 -1.33333,-5.27999 -1.33333,-1.76 -4.05333,-1.76 -1.28,0 -2.50667,0.16 -1.22666,0.16 -2.29333,0.48 l -0.53333,2.93333 -3.41333,-0.64 0.85333,-4.85333 q 2.02666,-0.74667 3.94666,-1.12 1.97334,-0.37333 3.78667,-0.37333 4.79999,0 7.25333,2.61333 2.45333,2.56 2.45333,7.62666 v 9.27999 l 5.06666,1.65334 -1.06666,3.41333 z m -7.68,-8.37333 q -2.29333,0 -3.51999,0.90667 -1.22667,0.90666 -1.22667,2.66666 0,3.73333 5.12,3.73333 3.68,0 6.34666,-2.02666 v -5.22667 z m -41.81831,9.92 v -3.30667 h 4.48 v -15.30666 l -5.120001,-1.76 1.120001,-3.30666 7.09333,2.45333 q 1.86667,-1.22666 3.94666,-1.81333 2.13334,-0.64 4.16,-0.64 2.56,0 4.69333,1.01333 2.18667,0.96 3.46667,2.98667 1.33333,1.97333 1.33333,5.01333 v 11.35999 h 4.48 v 3.30667 h -11.04 v -3.30667 h 2.4 v -10.50666 q 0,-3.41333 -1.76,-4.90666 -1.70666,-1.54667 -4.26666,-1.54667 -1.49333,0 -3.14667,0.48 -1.59999,0.42667 -3.19999,1.33333 v 15.14666 h 2.4 v 3.30667 z M 83.532762,173.0729 q 1.813332,-1.22667 4.106664,-1.86667 2.293332,-0.64 4.586664,-0.64 1.919999,0 2.026666,0.10667 l 0.906666,5.59999 -3.466665,0.74667 -0.533333,-2.98667 q -1.653332,0 -3.413331,0.48 -1.706666,0.48 -3.146665,1.33334 v 15.09332 h 5.226664 v 3.30667 H 75.959433 v -3.30667 h 4.479998 v -15.25332 l -5.119997,-1.76 1.119999,-3.30667 z m -11.184157,18.45332 q -2.133332,1.81333 -4.373331,2.66666 -2.186665,0.85334 -5.01333,0.85334 -3.733331,0 -6.506663,-1.44 -2.773332,-1.49334 -4.319997,-4.21333 -1.493333,-2.77334 -1.493333,-6.61333 0,-3.68 1.439999,-6.4 1.439999,-2.77333 4.053331,-4.26667 2.666665,-1.54666 6.13333,-1.54666 3.253331,0 5.546663,1.38667 2.293332,1.38666 3.519998,3.89333 1.279999,2.45333 1.279999,5.86666 0,0.48 -0.05333,1.01333 0,0.48 -0.05333,1.01334 l -17.75999,0.10666 q 0.16,2.72 1.28,4.42667 1.173332,1.70666 2.933331,2.50666 1.813332,0.8 3.839998,0.8 2.346665,0 4.213331,-0.64 1.866665,-0.64 3.413331,-1.92 z m -3.839998,-11.04 q -0.05333,-2.98666 -1.759999,-4.79999 -1.653332,-1.86667 -4.426664,-1.86667 -2.826665,0 -4.959997,1.86667 -2.133332,1.81333 -2.559998,4.85333 z m -23.648322,14.56 q -1.919998,0 -3.679997,-0.74667 -1.706666,-0.74667 -2.773332,-2.66667 -1.066666,-1.91999 -1.066666,-5.33333 v -11.62666 h -4.426664 v -3.30666 h 4.426664 v -5.17333 l 4.053331,-0.96 v 6.13333 h 6.666663 v 3.30666 h -6.666663 v 9.28 q 0,3.57333 0.693333,5.76 0.693333,2.18666 3.039998,2.18666 1.653332,0 3.733331,-0.96 l 0.8,2.98667 q -1.12,0.42666 -2.346666,0.74666 -1.226666,0.37334 -2.453332,0.37334 z M 2.359477,162.8329 h 23.679985 l 2.719999,8.21333 -3.466665,1.17333 -2.133332,-5.70666 H 11.746138 v 9.65333 h 9.973327 v 3.67999 h -9.973327 l -0.05333,10.72 h 12.533326 l 2.133332,-5.70667 3.466665,1.17334 -2.719998,8.21333 H 2.306143 v -3.68 H 7.42614 L 7.47947,166.5129 H 2.359473 Z"
         clip-path="none" />
    </clipPath>
    <rect
       x="-10.754588"
       y="28.124586"
       width="241.12341"
       height="96.473396"
       id="rect2546" />
    <rect
       x="33.086033"
       y="85"
       width="271.52899"
       height="114.24443"
       id="rect2548" />
  </defs>
  <sodipodi:namedview
     fit-margin-bottom="0"
     fit-margin-right="0"
     fit-margin-left="0"
     fit-margin-top="0"
     inkscape:snap-page="false"
     inkscape:bbox-paths="false"
     inkscape:snap-bbox="false"
     inkscape:window-maximized="1"
     inkscape:window-y="302"
     inkscape:window-x="1072"
     inkscape:window-height="1017"
     inkscape:window-width="1920"
     inkscape:guide-bbox="true"
     showguides="true"
     units="px"
     showgrid="false"
     inkscape:document-rotation="0"
     inkscape:current-layer="layer1"
     inkscape:document-units="px"
     inkscape:cy="89.36556"
     inkscape:cx="145.34499"
     inkscape:zoom="2.8284271"
     inkscape:pageshadow="2"
     inkscape:pageopacity="0.0"
     borderopacity="1.0"
     bordercolor="#666666"
     pagecolor="#ffffff"
     id="base">
    <sodipodi:guide
       inkscape:color="rgb(0,0,255)"
       inkscape:locked="false"
       inkscape:label=""
       id="guide861"
       orientation="0,1"
       position="107.06809,60.345113" />
    <sodipodi:guide
       inkscape:color="rgb(0,0,255)"
       inkscape:locked="false"
       inkscape:label=""
       id="guide863"
       orientation="0,1"
       position="305.05775,50.345112" />
    <sodipodi:guide
       inkscape:color="rgb(0,0,255)"
       inkscape:locked="false"
       inkscape:label=""
       id="guide873"
       orientation="-1,0"
       position="124.05209,60.345113" />
    <sodipodi:guide
       inkscape:color="rgb(0,0,255)"
       inkscape:locked="false"
       inkscape:label=""
       id="guide875"
       orientation="0,1"
       position="225.50824,55.345112" />
  </sodipodi:namedview>
  <metadata
     id="metadata5">
    <rdf:RDF>
      <cc:Work
         rdf:about="">
        <dc:format>image/svg+xml</dc:format>
        <dc:type
           rdf:resource="http://purl.org/dc/dcmitype/StillImage" />
        <dc:title></dc:title>
      </cc:Work>
    </rdf:RDF>
  </metadata>
  <g
     transform="translate(-3.9479058,-29.345118)"
     style="display:inline"
     id="layer1"
     inkscape:groupmode="layer"
     inkscape:label="Layer 1">
    <path
       d="m 129.60978,29.345221 a 91.057431,52.999737 0 0 0 -85.936471,36.06829 c 0.04844,2.098265 0.268283,3.842962 0.682492,5.18852 0.469526,1.525252 1.499904,2.288752 3.089071,2.288752 1.119636,0 2.382823,-0.335793 3.791401,-1.005416 l 0.813437,3.1266 c -0.758465,0.29761 -1.552072,0.55742 -2.382771,0.780627 -0.8307,0.260411 -1.663174,0.390314 -2.493874,0.390314 -1.300226,0 -2.54596,-0.25981 -3.737835,-0.780627 -1.155756,-0.520819 -2.094916,-1.452215 -2.817264,-2.791461 -0.03592,-0.0666 -0.0611,-0.149499 -0.09523,-0.218659 a 91.057431,52.999737 0 0 0 -1.618935,9.951987 91.057431,52.999737 0 0 0 10.209606,24.385432 c 0.135625,-2.95209 0.740629,-5.54962 1.813366,-7.791975 1.264109,-2.604089 3.051208,-4.612715 5.362721,-6.026367 2.311513,-1.450851 5.020322,-2.156346 8.126418,-2.11914 2.383747,0 4.298951,0.221818 5.743647,0.668234 1.480812,0.40921 2.546092,0.836921 3.196205,1.283336 0.686231,0.409217 1.029691,0.633082 1.029691,0.670277 l 1.190393,6.473901 -3.682283,0.835804 -1.085241,-4.798207 c -0.361176,-0.223207 -0.848206,-0.427057 -1.462202,-0.613059 -0.577878,-0.223208 -1.282247,-0.391104 -2.112948,-0.502707 -0.794583,-0.148815 -1.714307,-0.222746 -2.761712,-0.222746 -3.503386,0 -6.177295,1.209177 -8.019282,3.627265 -1.841988,2.380874 -2.761712,5.652614 -2.761712,9.819154 0,1.24514 0.09007,2.40145 0.251966,3.48626 a 91.057431,52.999737 0 0 0 14.00696,9.63524 c 0.417155,-0.0938 0.863754,-0.18015 1.234041,-0.2861 0.650113,-0.18601 1.191478,-0.35391 1.624888,-0.50271 l 1.029689,-4.46306 3.684267,0.89303 -1.355064,6.47185 -1.037626,0.48636 a 91.057431,52.999737 0 0 0 56.831361,11.59089 91.057431,52.999737 0 0 0 57.77772,-12.03639 c -0.60144,-0.42961 -1.15814,-0.92516 -1.66458,-1.49177 -2.05868,-2.38088 -3.08708,-5.65466 -3.08708,-9.8212 0,-3.86893 1.0284,-6.88086 3.08708,-9.03853 2.09481,-2.15767 5.00351,-3.236943 8.7236,-3.236943 0.97517,0 1.98613,0.11193 3.03352,0.335133 1.08353,0.186 2.07702,0.46379 2.97996,0.83581 v -7.309704 l -5.14647,-1.84122 1.13682,-3.459696 8.23554,2.901812 v 21.152558 a 91.057431,52.999737 0 0 0 15.98103,-29.990822 91.057431,52.999737 0 0 0 -91.05714,-52.998927 91.057431,52.999737 0 0 0 -0.35117,0 z m 75.42728,82.989749 a 91.057431,52.999737 0 0 1 -4.22589,3.30031 v 4.06253 c -0.90294,0.59522 -1.89643,1.09686 -2.97996,1.50609 -1.08351,0.37201 -2.07701,0.55788 -2.97994,0.55788 -1.05574,0 -2.01562,-0.20593 -2.88671,-0.60284 a 91.057431,52.999737 0 0 1 -4.22589,2.14978 c 1.8863,1.34746 4.23829,2.02514 7.05902,2.02514 2.49211,0 4.84,-0.81946 7.04317,-2.45631 l 7.20386,2.56667 1.08326,-3.57005 -5.09092,-1.78604 z m -13.0725,8.82397 a 91.057431,52.999737 0 0 0 8.84661,-5.52366 v -10.94923 c -0.79458,-0.40922 -1.75318,-0.74297 -2.87282,-1.00338 -1.08353,-0.2604 -2.11191,-0.39235 -3.08708,-0.39235 -2.23928,0 -4.06326,0.80149 -5.47185,2.40114 -1.37246,1.56246 -2.05937,3.64502 -2.05937,6.24912 0,2.9389 0.68691,5.31927 2.05937,7.14213 0.74449,0.94379 1.6086,1.63126 2.58514,2.07623 z m -118.834971,2.59528 a 91.057431,52.999737 0 0 1 -5.180195,-2.59937 c -0.315244,0.0709 -0.590465,0.15256 -0.932474,0.21661 -0.794583,0.11161 -1.642523,0.16757 -2.545458,0.16757 -3.395034,0 -6.051492,-1.1912 -7.965715,-3.57208 -1.326691,-1.68187 -2.173795,-3.83731 -2.563313,-6.44734 a 91.057431,52.999737 0 0 1 -4.829028,-4.79003 c -0.01962,0.42725 -0.02976,0.86165 -0.02976,1.30377 0.03612,3.53412 0.686152,6.60405 1.950261,9.20814 1.264108,2.56689 3.035742,4.55755 5.311137,5.9712 2.311513,1.41363 5.020322,2.12117 8.126418,2.12117 1.95034,0 3.64622,-0.16789 5.090915,-0.5027 1.480813,-0.33482 2.619862,-0.6706 3.414444,-1.00541 z M 40.522735,72.392161 a 91.057431,52.999737 0 0 1 3.150574,-6.97865 c -0.0065,-0.280218 -0.01984,-0.544199 -0.01984,-0.837848 v -9.708807 h 6.771353 V 51.407162 H 43.653469 V 44.99048 l -4.118761,1.003373 v 5.413309 H 35.03899 v 3.459694 h 4.495718 v 12.16513 c 0,2.262493 0.335754,4.038425 0.988027,5.360175 z m 121.967695,-33.428048 8.7236,2.063964 v 30.85729 h 4.54928 v 3.459694 h -13.32646 v -3.459694 h 4.55128 V 43.762319 l -5.41827,-1.228161 z M 4.0014714,42.478983 v 3.850009 H 9.2015057 L 9.147938,71.495053 H 3.9479037 v 3.850008 H 29.138608 l 2.763696,-8.593039 -3.52158,-1.226118 -2.166515,5.969149 H 13.482954 l 0.05356,-11.214888 H 23.666763 V 56.430156 H 13.536517 V 46.328992 h 11.59443 l 2.166515,5.971192 3.52158,-1.228162 -2.763696,-8.593039 z m 60.8548846,8.090332 c 2.203161,0 4.081481,0.483671 5.634528,1.450905 1.553047,0.967234 2.746432,2.326337 3.577132,4.074798 0.866817,1.711259 1.299512,3.755835 1.299512,6.136717 0,0.334812 -0.01745,0.68858 -0.05356,1.060592 0,0.334811 -0.01944,0.688578 -0.05555,1.060592 l -18.04041,0.112394 c 0.108353,1.897266 0.543032,3.440196 1.301497,4.630637 0.794583,1.190441 1.786093,2.065872 2.977967,2.623891 1.227991,0.55802 2.530046,0.835803 3.902506,0.835803 1.589166,0 3.015355,-0.223864 4.279463,-0.670277 1.264109,-0.446417 2.418624,-1.115958 3.466029,-2.008789 l 1.950261,2.623891 c -1.444696,1.264845 -2.925221,2.194196 -4.442151,2.789418 -1.480814,0.59522 -3.178677,0.893021 -5.092899,0.893021 -2.528217,0 -4.730561,-0.501645 -6.608667,-1.506081 -1.878103,-1.041635 -3.341177,-2.510626 -4.388582,-4.407891 -1.011287,-1.934468 -1.515768,-4.240897 -1.515768,-6.919391 1e-6,-2.566889 0.48703,-4.799378 1.462201,-6.696644 0.975169,-1.934467 2.347024,-3.423476 4.116776,-4.465111 1.805869,-1.078838 3.882094,-1.618475 6.229724,-1.618475 z m 30.432402,0 c 1.300226,0 1.985162,0.03799 2.057397,0.112393 l 0.922555,5.858799 -3.52158,0.780628 -0.541629,-3.124556 c -1.11964,0 -2.276139,0.167897 -3.468013,0.502708 -1.155756,0.334812 -2.221036,0.80051 -3.196205,1.395731 v 15.790349 h 5.309153 v 3.459694 H 78.764117 v -3.459694 h 4.55127 V 55.927448 l -5.200035,-1.841219 1.136826,-3.459696 7.205847,2.566673 c 1.227989,-0.855629 2.617296,-1.507198 4.170344,-1.953613 1.553047,-0.446416 3.107342,-0.670278 4.660389,-0.670278 z m 6.553122,0 7.20584,2.566673 c 1.26411,-0.855631 2.59909,-1.487182 4.00766,-1.896395 1.44469,-0.446416 2.85344,-0.670278 4.2259,-0.670278 1.73363,0 3.32283,0.353768 4.76752,1.060591 1.48082,0.669624 2.65476,1.710907 3.52158,3.124557 0.90293,1.376447 1.35507,3.125265 1.35507,5.245738 v 11.885166 h 4.55127 v 3.459694 h -11.2155 v -3.459694 h 2.43833 V 60.893224 c 0,-2.380884 -0.5957,-4.091709 -1.78757,-5.133345 -1.15576,-1.078838 -2.60139,-1.618476 -4.33502,-1.618476 -1.01129,0 -2.07656,0.167897 -3.19621,0.502709 -1.08352,0.29761 -2.16627,0.761265 -3.24977,1.393686 v 15.847569 h 2.43833 v 3.459694 h -11.2155 v -3.459694 h 4.55127 V 55.870229 l -5.20003,-1.84122 z m 43.18349,0 c 3.25056,0 5.70713,0.911379 7.36853,2.734242 1.66141,1.785661 2.4919,4.445858 2.4919,7.979981 v 9.71085 l 5.14647,1.728826 -1.08326,3.572088 -7.31497,-2.566672 c -2.34763,1.636857 -4.89343,2.454278 -7.63835,2.454278 -3.03386,0 -5.34488,-0.631551 -6.93405,-1.896395 -1.55304,-1.264844 -2.34859,-3.107618 -2.38475,-5.525703 -0.0722,-4.873368 2.9257,-7.309703 8.99341,-7.309703 l 6.9896,0.05517 c 0,-2.492487 -0.45214,-4.333218 -1.35506,-5.52366 -0.90294,-1.227643 -2.27479,-1.84122 -4.11678,-1.84122 -0.86682,0 -1.71674,0.05597 -2.54744,0.167569 -0.8307,0.111605 -1.60685,0.279501 -2.32921,0.502709 l -0.54162,3.067337 -3.46603,-0.668234 0.86501,-5.07817 c 1.37247,-0.520818 2.70942,-0.912577 4.00965,-1.172985 1.33634,-0.260409 2.61895,-0.390314 3.84695,-0.390314 z m -80.113462,3.404519 c -1.914222,0 -3.594636,0.651568 -5.039332,1.953614 -1.444695,1.264843 -2.310086,2.957697 -2.599024,5.07817 L 71.1952,60.948398 c -0.03611,-2.08327 -0.631815,-3.756107 -1.787574,-5.02095 -1.11964,-1.302046 -2.617615,-1.953614 -4.495718,-1.953614 z M 143.833,64.965977 c -1.55305,0 -2.74446,0.317819 -3.57515,0.950241 -0.8307,0.632422 -1.24594,1.561775 -1.24594,2.789418 0,2.604089 1.73275,3.905184 5.20003,3.905184 2.4921,0 4.64209,-0.705492 6.44796,-2.11914 v -5.468484 z m -36.25938,23.147054 8.72161,2.063964 v 30.859325 h 4.55127 v 3.4597 h -13.32645 v -3.4597 h 4.54929 V 92.911238 l -5.41629,-1.226117 z M 90.108564,99.720277 c 3.250565,0 5.70515,0.911373 7.36655,2.734233 1.6614,1.78567 2.49189,4.44586 2.49189,7.97999 v 9.7088 l 5.146466,1.73087 -1.08325,3.57005 -7.31299,-2.56667 c -2.34763,1.63685 -4.893435,2.45631 -7.638356,2.45631 -3.033861,0 -5.34686,-0.63359 -6.936024,-1.89843 -1.553048,-1.26485 -2.346649,-3.10557 -2.382771,-5.52366 -0.07223,-4.87337 2.9257,-7.30971 8.99342,-7.30971 l 6.987608,0.0551 c 0,-2.49249 -0.450145,-4.33322 -1.35308,-5.52365 -0.902935,-1.22765 -2.276773,-1.84327 -4.11876,-1.84327 -0.866817,0 -1.714757,0.056 -2.545458,0.16757 -0.830699,0.1116 -1.606854,0.2795 -2.329203,0.50271 l -0.541629,3.06938 -3.468011,-0.67028 0.867002,-5.07817 c 1.372462,-0.52082 2.709416,-0.91053 4.009642,-1.17094 1.336343,-0.260402 2.618962,-0.390309 3.846954,-0.390309 z m 45.959106,0 c 2.20315,0 4.08148,0.483673 5.63452,1.450903 1.55305,0.96724 2.74643,2.32429 3.57714,4.07275 0.86681,1.71126 1.2995,3.75788 1.2995,6.13877 0,0.33481 -0.0175,0.68858 -0.0535,1.06059 0,0.33481 -0.0195,0.68858 -0.0556,1.06059 l -18.0404,0.11035 c 0.10835,1.89726 0.54303,3.44224 1.3015,4.63267 0.79458,1.19045 1.78608,2.06384 2.97796,2.62185 1.22799,0.55803 2.53004,0.83785 3.9025,0.83785 1.58916,0 3.01537,-0.22386 4.27947,-0.67028 1.26412,-0.44641 2.41863,-1.11595 3.46602,-2.00878 l 1.95027,2.62185 c -1.44469,1.26484 -2.92522,2.19624 -4.44215,2.79146 -1.48082,0.59521 -3.17868,0.89301 -5.0929,0.89301 -2.52822,0 -4.73057,-0.50368 -6.60866,-1.50811 -1.87812,-1.04164 -3.34119,-2.51063 -4.38859,-4.40791 -1.01129,-1.93445 -1.51576,-4.24089 -1.51576,-6.91938 0,-2.56689 0.48702,-4.79938 1.46219,-6.69665 0.97516,-1.93447 2.34702,-3.42143 4.11678,-4.46306 1.80587,-1.07884 3.88208,-1.618473 6.22973,-1.618473 z m 14.34225,0 7.20386,2.566673 c 1.26411,-0.85564 2.60106,-1.48923 4.00964,-1.89844 1.44469,-0.446415 2.85343,-0.668233 4.2259,-0.668233 1.73363,0 3.32282,0.353763 4.76753,1.060583 1.4808,0.66963 2.65475,1.71091 3.52157,3.12456 0.90293,1.37645 1.35507,3.12528 1.35507,5.24573 v 11.88517 h 4.54928 v 3.4597 h -11.2135 v -3.4597 h 2.43832 v -10.99214 c 0,-2.38088 -0.59768,-4.09374 -1.78956,-5.13538 -1.15576,-1.07884 -2.5994,-1.61848 -4.33303,-1.61848 -1.01129,0 -2.07657,0.16789 -3.19621,0.5027 -1.08351,0.29761 -2.16823,0.76331 -3.25175,1.39574 v 15.84756 h 2.43832 v 3.4597 h -11.2135 v -3.4597 h 4.55127 v -16.01513 l -5.20203,-1.84122 z m 73.12783,0 c -1.22798,0 -2.5106,0.129907 -3.84695,0.390313 -1.30023,0.2604 -2.63718,0.65012 -4.00964,1.17094 l -0.867,5.07817 3.468,0.67027 0.54164,-3.06937 c 0.72235,-0.22322 1.4985,-0.3911 2.3292,-0.50271 0.8307,-0.11161 1.68063,-0.16757 2.54744,-0.16757 1.84199,0 3.21385,0.61562 4.11678,1.84326 0.90294,1.19043 1.35507,3.03118 1.35507,5.52366 l -6.9896,-0.0551 c -6.06772,0 -9.06566,2.43633 -8.99342,7.30971 0.0362,2.41808 0.83171,4.25882 2.38476,5.52365 1.58916,1.26485 3.90017,1.89845 6.93403,1.89845 2.74493,0 5.29074,-0.81948 7.63836,-2.45633 l 7.31496,2.56668 1.08327,-3.57005 -5.14647,-1.73087 v -9.70881 c 0,-3.53412 -0.83049,-6.19431 -2.49189,-7.97998 -1.66139,-1.82286 -4.11797,-2.734238 -7.36854,-2.734238 z m 33.4322,0 c -1.55304,0 -3.10734,0.221818 -4.66039,0.668233 -1.55305,0.44641 -2.94235,1.09798 -4.17035,1.95361 l -7.20584,-2.566668 -1.13881,3.459688 5.20201,1.84122 v 15.95996 h -4.55127 v 3.4597 h 14.08633 v -3.4597 h -5.30916 v -15.79239 c 0.97517,-0.59522 2.04046,-1.06091 3.19621,-1.39572 1.19188,-0.33482 2.34639,-0.50067 3.46602,-0.50067 l 0.54362,3.12455 3.51959,-0.78063 -0.92057,-5.860833 c -0.0722,-0.0744 -0.75717,-0.11035 -2.05739,-0.11035 z m -120.84673,3.402473 c -1.91423,0 -3.59464,0.65157 -5.03933,1.95361 -1.4447,1.26485 -2.31207,2.95771 -2.60102,5.07817 l 13.92363,-0.0551 c -0.0361,-2.08327 -0.63178,-3.75814 -1.78756,-5.02299 -1.11964,-1.30204 -2.61762,-1.95362 -4.49572,-1.95362 z m -47.207034,10.99419 c -1.553048,0 -2.744447,0.31578 -3.575147,0.94819 -0.8307,0.63242 -1.245944,1.56178 -1.245944,2.78942 0,2.60409 1.732764,3.90723 5.200033,3.90723 2.4921,0 4.640111,-0.70753 6.445979,-2.12118 v -5.46849 z m 133.429184,0 6.82692,0.0551 v 5.46848 c -1.80588,1.41365 -3.95586,2.12118 -6.44797,2.12118 -3.46726,0 -5.20003,-1.30313 -5.20003,-3.90723 0,-1.22764 0.41524,-2.15699 1.24594,-2.78942 0.8307,-0.63242 2.02211,-0.9482 3.57514,-0.9482 z"
       style="font-style:normal;font-variant:normal;font-weight:normal;font-stretch:normal;font-size:53.3333px;line-height:1.25;font-family:Podkova;-inkscape-font-specification:Podkova;white-space:pre;fill:#0000ff;fill-opacity:1;stroke:none;stroke-width:1"
       id="path2616" />
    <text
       transform="translate(0.68636257)"
       style="font-style:normal;font-variant:normal;font-weight:normal;font-stretch:normal;font-size:40px;line-height:1.25;font-family:Podkova;-inkscape-font-specification:Podkova;white-space:pre;shape-inside:url(#rect835);fill:#0000ff;fill-opacity:1;stroke:none;"
       id="text833"
       xml:space="preserve" />
    <text
       transform="translate(0.68636257)"
       style="font-style:normal;font-weight:normal;font-size:53.3333px;line-height:1.25;font-family:sans-serif;white-space:pre;shape-inside:url(#rect879);fill:#0000ff;fill-opacity:1;stroke:none;"
       id="text877"
       xml:space="preserve"><tspan
         style="visibility:hidden"
         x="25.101562"
         y="191.20386"><tspan
           dx="0 30.624981 28.020817 15.624992 25.104149 32.604156 29.999969 26.458328"
           style="font-style:normal;font-variant:normal;font-weight:normal;font-stretch:normal;font-size:53.3333px;font-family:Podkova;-inkscape-font-specification:Podkova;fill:#0000ff">Calendar</tspan></tspan></text>
    <text
       transform="translate(0.66474257,0.052039)"
       xml:space="preserve"
       id="text833-9"
       style="font-style:normal;font-variant:normal;font-weight:normal;font-stretch:normal;font-size:40px;line-height:1.25;font-family:Podkova;-inkscape-font-specification:Podkova;white-space:pre;shape-inside:url(#rect835-2);display:inline;fill:#000000;fill-opacity:1;stroke:none;" />
    <text
       transform="translate(0.66474257,0.052039)"
       xml:space="preserve"
       id="text877-2"
       style="font-style:normal;font-weight:normal;font-size:53.3333px;line-height:1.25;font-family:sans-serif;white-space:pre;shape-inside:url(#rect879-1);display:inline;fill:#000000;fill-opacity:1;stroke:none;"><tspan
         style="visibility:hidden"
         x="25.101562"
         y="191.20386"><tspan
           dx="0 30.624981 28.020817 15.624992 25.104149 32.604156 29.999969 26.458328"
           style="font-style:normal;font-variant:normal;font-weight:normal;font-stretch:normal;font-size:53.3333px;font-family:Podkova;-inkscape-font-specification:Podkova">Calendar</tspan></tspan></text>
  </g>
  <g
     transform="translate(-2.3281251,-1.9276385)"
     style="display:none"
     inkscape:label="Negative"
     id="layer4"
     inkscape:groupmode="layer">
    <path
       d="m 158.4043,11.121094 -0.90625,3.412109 5.33398,1.173828 v 26.878907 h -4.48047 v 3.30664 h 13.11914 v -3.30664 h -4.47851 V 13.09375 Z M 62.289062,22.212891 c -2.311109,0 -4.355035,0.515764 -6.132812,1.546875 -1.742221,0.995554 -3.092735,2.41869 -4.052734,4.267578 -0.96,1.813332 -1.439453,3.947058 -1.439454,6.40039 0,2.559999 0.496633,4.764394 1.492188,6.613282 1.031111,1.813332 2.471425,3.217336 4.320312,4.21289 1.848889,0.96 4.016973,1.439453 6.50586,1.439453 1.884443,0 3.555894,-0.284627 5.013672,-0.853515 1.493332,-0.568889 2.950825,-1.457127 4.373047,-2.666016 l -1.919922,-2.507812 c -1.031111,0.853333 -2.167666,1.493254 -3.41211,1.919922 -1.244443,0.426665 -2.648446,0.640624 -4.21289,0.640624 -1.35111,0 -2.632909,-0.265494 -3.841797,-0.798828 -1.173333,-0.533332 -2.149419,-1.370035 -2.931641,-2.507812 -0.746666,-1.137777 -1.174583,-2.612449 -1.28125,-4.425781 l 17.759766,-0.107422 c 0.03555,-0.355556 0.05469,-0.693673 0.05469,-1.013672 0.03555,-0.355555 0.05273,-0.693672 0.05273,-1.013672 0,-2.275554 -0.425964,-4.22968 -1.279297,-5.865234 -0.817777,-1.67111 -1.992597,-2.970088 -3.521484,-3.894532 -1.528888,-0.924444 -3.377988,-1.386718 -5.546876,-1.386718 z m 29.958985,0 c -1.528888,0 -3.059003,0.213958 -4.587891,0.640625 -1.528888,0.426666 -2.896581,1.04941 -4.105468,1.867187 l -7.09375,-2.453125 -1.119141,3.306641 5.119141,1.759765 v 15.251954 h -4.480469 v 3.30664 h 13.867187 v -3.30664 H 84.621094 V 27.494141 c 0.959999,-0.568889 2.008707,-1.013985 3.146484,-1.333985 1.173333,-0.319999 2.311841,-0.480468 3.414063,-0.480468 l 0.533203,2.986328 3.466797,-0.746094 -0.908203,-5.59961 c -0.07111,-0.07111 -0.745392,-0.107421 -2.025391,-0.107421 z m 6.451172,0 -1.119141,3.30664 5.119142,1.759766 v 15.306641 h -4.48047 v 3.30664 h 11.04102 v -3.30664 h -2.40039 V 27.439453 c 1.06665,-0.604444 2.13255,-1.047587 3.19921,-1.332031 1.10223,-0.32 2.15093,-0.480469 3.14649,-0.480469 1.70666,0 3.1298,0.515764 4.26758,1.546875 1.17333,0.995555 1.75976,2.630695 1.75976,4.90625 v 10.50586 h -2.40039 v 3.30664 h 11.04102 v -3.30664 h -4.48047 V 31.226562 c 0,-2.026665 -0.4451,-3.698117 -1.33399,-5.013671 -0.85333,-1.351111 -2.00901,-2.346328 -3.46679,-2.986329 -1.42222,-0.675554 -2.9867,-1.013671 -4.69336,-1.013671 -1.35111,0 -2.73794,0.213958 -4.16016,0.640625 -1.38666,0.39111 -2.70087,0.994722 -3.94531,1.8125 z m 42.511721,0 c -1.2089,0 -2.47156,0.124158 -3.78711,0.373047 -1.28,0.248888 -2.59616,0.623316 -3.94727,1.121093 l -0.85156,4.853516 3.41211,0.638672 0.5332,-2.931641 c 0.71112,-0.213333 1.4752,-0.373802 2.29297,-0.480469 0.81778,-0.106666 1.65448,-0.160156 2.50781,-0.160156 1.81334,0 3.16385,0.586433 4.05274,1.759766 0.88888,1.137777 1.33398,2.897076 1.33398,5.279297 l -6.88086,-0.05273 c -5.97332,0 -8.92463,2.328554 -8.85351,6.986328 0.0356,2.31111 0.81877,4.072362 2.34765,5.28125 1.56445,1.208888 3.83952,1.8125 6.82618,1.8125 2.70222,0 5.20842,-0.781259 7.51953,-2.345703 l 7.20117,2.453125 1.06641,-3.414062 -5.06641,-1.652344 v -9.28125 c 0,-3.377776 -0.81757,-5.920288 -2.45313,-7.626953 -1.63556,-1.742221 -4.05391,-2.613281 -7.2539,-2.613281 z m -78.86719,3.253906 c 1.848887,0 3.323559,0.622743 4.425781,1.867187 1.13778,1.208888 1.724213,2.807719 1.759766,4.798828 L 54.824219,32.1875 c 0.284444,-2.026665 1.136372,-3.644628 2.558593,-4.853516 1.422222,-1.244444 3.076495,-1.867187 4.960938,-1.867187 z m 77.69336,10.505859 6.7207,0.05469 v 5.226562 c -1.77777,1.35111 -3.89432,2.025391 -6.34765,2.025391 -3.41334,0 -5.11914,-1.243535 -5.11914,-3.732422 0,-1.173333 0.40878,-2.061572 1.22656,-2.666016 0.81777,-0.604444 1.99064,-0.908203 3.51953,-0.908203 z m -98.601563,0.427735 a 89.640907,50.655071 0 0 0 -3.101563,6.669921 c 0.0336,0.0661 0.05839,0.145338 0.09375,0.208985 0.711111,1.279999 1.635661,2.170191 2.773438,2.667969 1.173333,0.497777 2.399688,0.746093 3.679687,0.746093 0.817778,0 1.637301,-0.124157 2.455079,-0.373047 0.817776,-0.213332 1.599037,-0.461649 2.345703,-0.746093 l -0.800782,-2.988281 c -1.386666,0.639999 -2.630201,0.960937 -3.732421,0.960937 -1.564445,0 -2.578794,-0.729723 -3.041016,-2.1875 -0.407766,-1.286031 -0.624188,-2.953544 -0.671875,-4.958984 z m 62.906253,21.695312 -0.90625,3.414063 5.33203,1.171875 V 89.5625 h -4.47852 v 3.306641 H 117.4082 V 89.5625 h -4.48047 V 60.068359 Z m 87.83984,0.160156 -1.11914,3.306641 5.06641,1.759766 v 6.986328 c -0.88889,-0.35556 -1.86693,-0.621055 -2.9336,-0.798828 -1.0311,-0.213334 -2.02633,-0.320313 -2.98633,-0.320313 -3.66222,0 -6.52567,1.03153 -8.58789,3.09375 -2.02666,2.06222 -3.03906,4.940899 -3.03906,8.638672 0,3.98222 1.0124,7.111165 3.03906,9.386719 0.49856,0.541536 1.0466,1.015165 1.63868,1.425781 a 89.640907,50.655071 0 0 0 4.16015,-2.054687 c -0.96135,-0.425277 -1.81201,-1.082336 -2.54492,-1.984376 -1.35111,-1.74222 -2.02734,-4.017285 -2.02734,-6.826171 0,-2.488887 0.67623,-4.479323 2.02734,-5.972657 1.38667,-1.528886 3.18228,-2.294922 5.38672,-2.294922 0.96,10e-7 1.97239,0.126114 3.03906,0.375 1.10222,0.248887 2.04591,0.567872 2.82813,0.958985 v 10.464844 a 89.640907,50.655071 0 0 0 4.16015,-3.154297 V 61.029297 Z M 61.855469,60.65625 c -3.057776,-0.03556 -5.724446,0.638724 -8,2.025391 -2.275554,1.351113 -4.034853,3.270879 -5.279297,5.759765 -1.056049,2.143159 -1.651641,4.625775 -1.785156,7.447266 a 89.640907,50.655071 0 0 0 4.753906,4.578125 c -0.159376,-1.036813 -0.248047,-2.141973 -0.248047,-3.332031 0,-3.98222 0.905417,-7.109213 2.71875,-9.384766 1.813332,-2.311113 4.445645,-3.466797 7.894531,-3.466797 1.031111,0 1.936528,0.07066 2.71875,0.212891 0.817778,0.106666 1.51119,0.267135 2.080078,0.480468 0.604444,0.177774 1.083898,0.372605 1.439454,0.585938 l 1.068359,4.585938 3.625,-0.798829 -1.171875,-6.1875 c 0,-0.03555 -0.338117,-0.249511 -1.013672,-0.640625 -0.64,-0.426666 -1.688708,-0.835455 -3.146484,-1.226562 -1.422222,-0.426667 -3.307632,-0.638672 -5.654297,-0.638672 z m 25.292969,8.533203 c -1.208889,0 -2.471555,0.12416 -3.78711,0.373047 -1.279999,0.248887 -2.596155,0.621361 -3.947266,1.119141 l -0.853515,4.853515 3.414062,0.640625 0.533203,-2.933593 c 0.711111,-0.213334 1.475192,-0.373803 2.292969,-0.480469 0.817778,-0.106667 1.652527,-0.160157 2.50586,-0.160157 1.813332,0 3.165798,0.588386 4.054687,1.761719 0.888888,1.137774 1.332031,2.897077 1.332031,5.279297 l -6.878906,-0.05273 c -5.973329,0 -8.924626,2.328555 -8.853515,6.986328 0.03556,2.311113 0.816815,4.07041 2.345703,5.279297 1.564443,1.208886 3.84146,1.814453 6.828125,1.814453 2.70222,0 5.208421,-0.783216 7.519531,-2.347656 l 7.199223,2.453125 1.0664,-3.41211 -5.066404,-1.654297 v -9.279296 c 0,-3.377774 -0.817571,-5.920287 -2.453125,-7.626954 -1.635555,-1.74222 -4.051955,-2.613281 -7.251953,-2.613281 z m 45.244142,0 c -2.31112,0 -4.35504,0.515768 -6.13281,1.546875 -1.74223,0.995553 -3.09275,2.416732 -4.05274,4.265625 -0.96,1.813327 -1.43945,3.947057 -1.43945,6.400391 0,2.56 0.49663,4.764394 1.49219,6.613281 1.0311,1.813333 2.47141,3.217337 4.32031,4.212891 1.84888,0.96 4.01697,1.441406 6.50586,1.441406 1.88444,0 3.55589,-0.284629 5.01367,-0.853516 1.49333,-0.568886 2.95083,-1.459075 4.37305,-2.667968 l -1.91993,-2.50586 c -1.0311,0.853333 -2.16766,1.493255 -3.41211,1.919922 -1.24444,0.426667 -2.64845,0.640625 -4.21289,0.640625 -1.35111,0 -2.63291,-0.267448 -3.84179,-0.800781 -1.17334,-0.533334 -2.14942,-1.36808 -2.93164,-2.50586 -0.74667,-1.137773 -1.17459,-2.614401 -1.28125,-4.427734 l 17.75976,-0.105469 c 0.0355,-0.355553 0.0547,-0.693672 0.0547,-1.013672 0.0355,-0.355553 0.0527,-0.693671 0.0527,-1.013671 0,-2.27556 -0.42596,-4.231635 -1.27929,-5.867188 -0.81778,-1.671107 -1.9926,-2.968131 -3.52149,-3.892578 -1.52888,-0.92444 -3.37799,-1.386719 -5.54687,-1.386719 z m 14.11914,0 -1.1211,3.306641 5.1211,1.759765 V 89.5625 h -4.48047 v 3.306641 h 11.03906 V 89.5625 h -2.40039 V 74.416016 c 1.06667,-0.604447 2.13451,-1.049545 3.20117,-1.333985 1.10222,-0.32 2.15093,-0.480469 3.14649,-0.480469 1.70666,0 3.12784,0.515769 4.26562,1.546876 1.17334,0.995559 1.76172,2.632649 1.76172,4.908203 V 89.5625 h -2.40039 v 3.306641 h 11.03906 V 89.5625 h -4.47851 V 78.203125 c 0,-2.02666 -0.4451,-3.698112 -1.33399,-5.013672 -0.85333,-1.351107 -2.00902,-2.346328 -3.46679,-2.986328 -1.42223,-0.675553 -2.9867,-1.013672 -4.69336,-1.013672 -1.35112,0 -2.73794,0.212005 -4.16016,0.638672 -1.38667,0.391107 -2.70282,0.996673 -3.94726,1.814453 z m -14.06445,3.251953 c 1.84888,0 3.32356,0.622748 4.42578,1.867188 1.1378,1.208893 1.72423,2.809674 1.75976,4.800781 l -13.70703,0.05273 c 0.28445,-2.02666 1.13833,-3.644622 2.56055,-4.853515 1.42222,-1.24444 3.07649,-1.867188 4.96094,-1.867188 z m -46.472661,10.507813 6.71875,0.05273 v 5.226563 c -1.777776,1.351113 -3.892371,2.027343 -6.345703,2.027343 -3.413331,0 -5.11914,-1.245488 -5.11914,-3.734375 0,-1.173333 0.408785,-2.061569 1.226562,-2.666015 0.817777,-0.60444 1.990643,-0.90625 3.519531,-0.90625 z m -16.8125,1.707031 -1.013671,4.265625 c -0.426667,0.14222 -0.959611,0.302689 -1.59961,0.480469 -0.364527,0.101255 -0.804178,0.183714 -1.214844,0.273437 a 89.640907,50.655071 0 0 0 5.09961,2.484375 l 1.021484,-0.464844 1.333984,-6.185546 z"
       style="display:inline;fill:#ff0000;stroke:#ffffff;stroke-width:0"
       id="path2638" />
  </g>
  <g
     transform="translate(-2.3281251,-1.9276385)"
     style="display:none"
     inkscape:label="Text"
     id="layer3"
     inkscape:groupmode="layer">
    <text
       xml:space="preserve"
       id="text2540"
       style="font-style:normal;font-weight:normal;font-size:53.3333px;line-height:1.25;font-family:sans-serif;white-space:pre;shape-inside:url(#rect2546);display:inline;fill:#000000;fill-opacity:1;stroke:none;"
       transform="translate(11.108141,-30.245907)"><tspan
         x="-10.753906"
         y="76.139412"><tspan
           style="font-style:normal;font-variant:normal;font-weight:normal;font-stretch:normal;font-size:53.3333px;font-family:Podkova;-inkscape-font-specification:Podkova">Eternal</tspan></tspan></text>
    <text
       xml:space="preserve"
       id="text2544"
       style="font-style:normal;font-weight:normal;font-size:53.3333px;line-height:1.25;font-family:sans-serif;white-space:pre;shape-inside:url(#rect2548);display:inline;fill:#000000;fill-opacity:1;stroke:none;"
       transform="translate(11.329967,-40.145402)"><tspan
         x="33.085938"
         y="133.01441"><tspan
           style="font-style:normal;font-variant:normal;font-weight:normal;font-stretch:normal;font-size:53.3333px;font-family:Podkova;-inkscape-font-specification:Podkova">Calendar</tspan></tspan></text>
  </g>
</svg>
