<?xml version="1.0" encoding="UTF-8" standalone="no"?>
<svg
   xmlns:dc="http://purl.org/dc/elements/1.1/"
   xmlns:cc="http://creativecommons.org/ns#"
   xmlns:rdf="http://www.w3.org/1999/02/22-rdf-syntax-ns#"
   xmlns:svg="http://www.w3.org/2000/svg"
   xmlns="http://www.w3.org/2000/svg"
   xmlns:sodipodi="http://sodipodi.sourceforge.net/DTD/sodipodi-0.dtd"
   xmlns:inkscape="http://www.inkscape.org/namespaces/inkscape"
   inkscape:export-ydpi="96"
   inkscape:export-xdpi="96"
   inkscape:export-filename="C:\Users\ashley\projects\assets\EternalCalendar\export\textures\info_icon.png"
   inkscape:version="1.0 (4035a4fb49, 2020-05-01)"
   sodipodi:docname="info_icon.svg"
   id="svg6"
   version="1.1"
   fill="#ffffff"
   width="30"
   viewBox="0 0 15 15"
   height="30">
  <metadata
     id="metadata12">
    <rdf:RDF>
      <cc:Work
         rdf:about="">
        <dc:format>image/svg+xml</dc:format>
        <dc:type
           rdf:resource="http://purl.org/dc/dcmitype/StillImage" />
        <dc:title></dc:title>
      </cc:Work>
    </rdf:RDF>
  </metadata>
  <defs
     id="defs10" />
  <sodipodi:namedview
     inkscape:current-layer="svg6"
     inkscape:window-maximized="1"
     inkscape:window-y="302"
     inkscape:window-x="1072"
     inkscape:cy="20"
     inkscape:cx="20"
     inkscape:zoom="8.8541667"
     fit-margin-bottom="0"
     fit-margin-right="0"
     fit-margin-left="0"
     fit-margin-top="0"
     showgrid="false"
     id="namedview8"
     inkscape:window-height="1017"
     inkscape:window-width="1920"
     inkscape:pageshadow="2"
     inkscape:pageopacity="0"
     guidetolerance="10"
     gridtolerance="10"
     objecttolerance="10"
     borderopacity="1"
     bordercolor="#666666"
     pagecolor="#ffffff" />
  <path
     style="fill:#000000;stroke-width:1"
     id="path4"
     d="m 6.75,3.75 h 1.5 v 1.5 h -1.5 z m 0,3 h 1.5 v 4.5 H 6.75 Z M 7.5,0 C 3.36,0 0,3.36 0,7.5 0,11.64 3.36,15 7.5,15 11.64,15 15,11.64 15,7.5 15,3.36 11.64,0 7.5,0 Z m 0,13.5 c -3.3075,0 -6,-2.6925 -6,-6 0,-3.3075 2.6925,-6 6,-6 3.3075,0 6,2.6925 6,6 0,3.3075 -2.6925,6 -6,6 z" />
</svg>
